<svg width="12" height="15" viewBox="0 0 12 15" fill="none" xmlns="http://www.w3.org/2000/svg">
<path d="M0.33546 0.665689C0.550319 0.405151 0.841693 0.258789 1.1455 0.258789C1.44932 0.258789 1.74069 0.405151 1.95555 0.665689L6.00692 5.57985L10.0583 0.665689C10.2744 0.412535 10.5638 0.272456 10.8642 0.275622C11.1646 0.278789 11.452 0.424947 11.6644 0.682619C11.8768 0.94029 11.9973 1.28886 12 1.65324C12.0026 2.01763 11.8871 2.36869 11.6784 2.6308L7.62701 7.54496L11.6784 12.4591C11.8871 12.7212 12.0026 13.0723 12 13.4367C11.9973 13.8011 11.8768 14.1496 11.6644 14.4073C11.452 14.665 11.1646 14.8111 10.8642 14.8143C10.5638 14.8175 10.2744 14.6774 10.0583 14.4242L6.00692 9.51006L1.95555 14.4242C1.73946 14.6774 1.45004 14.8175 1.14963 14.8143C0.849216 14.8111 0.561848 14.665 0.349417 14.4073C0.136985 14.1496 0.0164882 13.8011 0.0138777 13.4367C0.0112672 13.0723 0.126752 12.7212 0.33546 12.4591L4.38683 7.54496L0.33546 2.6308C0.120665 2.37018 0 2.01676 0 1.64824C0 1.27973 0.120665 0.926306 0.33546 0.665689Z" fill="#CCCCCC"/>
</svg>
