<svg width="72" height="42" viewBox="0 0 72 42" fill="none" xmlns="http://www.w3.org/2000/svg">
<path d="M30 26.2156C30.3482 26.2768 30.6544 26.3196 30.9185 26.344C31.1947 26.3685 31.4228 26.3868 31.6029 26.399C31.819 26.4112 32.0051 26.4174 32.1612 26.4174C32.3173 26.4174 32.5394 26.4051 32.8276 26.3807C33.0678 26.3562 33.3799 26.3257 33.7641 26.289C34.1604 26.2523 34.6467 26.1912 35.223 26.1056C35.0549 26.1545 34.8988 26.2951 34.7547 26.5274C34.6226 26.7474 34.5026 26.9858 34.3945 27.2425C34.2624 27.5482 34.1484 27.8844 34.0523 28.2511C33.9683 28.5812 33.8602 29.0335 33.7281 29.6081C33.6081 30.1826 33.488 30.8061 33.3679 31.4785C33.2599 32.1509 33.1758 32.8355 33.1158 33.5323C33.0557 34.2169 33.0437 34.8465 33.0798 35.421C33.1278 35.9956 33.2419 36.4724 33.422 36.8513C33.6021 37.2181 33.8782 37.4137 34.2504 37.4381C34.8148 37.487 35.283 37.4932 35.6552 37.4565C36.0395 37.4076 36.3516 37.3403 36.5918 37.2548C36.8319 37.1692 37.018 37.0714 37.1501 36.9614C37.2822 36.8391 37.3842 36.723 37.4563 36.613C37.6484 36.3318 37.8465 35.9712 38.0506 35.5311C38.2547 35.091 38.4348 34.6692 38.5909 34.2658C38.759 33.8623 38.8971 33.5201 39.0051 33.2389C39.1132 32.9577 39.1672 32.8232 39.1672 32.8355C39.1672 32.8599 39.1612 33.0005 39.1492 33.2572C39.1492 33.5017 39.1432 33.8012 39.1312 34.1557C39.1312 34.498 39.1252 34.8587 39.1132 35.2377C39.1132 35.6166 39.1072 35.9406 39.0952 36.2095C39.0832 36.4296 39.0712 36.6741 39.0592 36.943C39.0472 37.1753 39.0352 37.4504 39.0232 37.7682C39.0232 38.0861 39.0111 38.4345 38.9871 38.8134C38.4828 38.7768 38.0026 38.7523 37.5463 38.7401C37.0901 38.7279 36.6878 38.7218 36.3396 38.7218C35.9314 38.7218 35.5532 38.7279 35.205 38.7401C34.8328 38.7523 34.4005 38.7707 33.9082 38.7951C33.488 38.8196 32.9657 38.8501 32.3413 38.8868C31.717 38.9112 30.9966 38.9479 30.1801 38.9968C30.2762 38.8257 30.3542 38.6667 30.4142 38.5201C30.4863 38.3734 30.5403 38.2511 30.5763 38.1533C30.6244 38.0311 30.6544 37.9271 30.6664 37.8416C30.7384 37.4504 30.7985 36.9553 30.8465 36.3562C30.8945 35.745 30.9305 35.0971 30.9545 34.4125C30.9906 33.7279 31.0086 33.0311 31.0086 32.322C31.0206 31.6007 31.0206 30.9345 31.0086 30.3232C30.9966 29.712 30.9726 29.1802 30.9365 28.7279C30.9125 28.2756 30.8765 27.9638 30.8285 27.7927C30.7684 27.5971 30.6964 27.4015 30.6123 27.2059C30.5403 27.0347 30.4503 26.8636 30.3422 26.6924C30.2461 26.509 30.1321 26.3501 30 26.2156Z" fill="white"/>
<path d="M41.5266 32.0836C41.5866 32.0103 41.6226 31.8758 41.6347 31.6802C41.6587 31.4724 41.7067 31.2401 41.7787 30.9834C41.8628 30.7267 42.0009 30.4577 42.193 30.1765C42.3851 29.8954 42.6973 29.6325 43.1295 29.388C43.5497 29.1435 43.958 28.9968 44.3542 28.9479C44.7504 28.899 45.1286 28.9174 45.4888 29.0029C45.8491 29.0885 46.1852 29.223 46.4974 29.4064C46.8216 29.5897 47.1158 29.7914 47.3799 30.0115C47.56 30.1582 47.7041 30.3721 47.8122 30.6533C47.9202 30.9223 48.0043 31.2279 48.0643 31.5702C48.1244 31.9125 48.1664 32.2731 48.1904 32.6521C48.2264 33.0188 48.2504 33.3795 48.2624 33.734C48.2744 34.0763 48.2804 34.3941 48.2804 34.6875C48.2925 34.9687 48.3165 35.201 48.3525 35.3844C48.4005 35.6533 48.4846 35.8856 48.6046 36.0812C48.7247 36.2645 48.8568 36.4235 49.0009 36.5579C49.1449 36.6802 49.289 36.778 49.4331 36.8513C49.5772 36.9247 49.7033 36.9797 49.8113 37.0164C49.8834 37.0531 49.9494 37.0775 50.0094 37.0897C50.1295 37.1386 50.2136 37.1386 50.2616 37.0897C50.1895 37.2609 50.1235 37.4076 50.0635 37.5298C50.0034 37.6521 49.9554 37.756 49.9194 37.8416C49.8714 37.9394 49.8293 38.0188 49.7933 38.08C49.7573 38.1533 49.7153 38.2205 49.6672 38.2817C49.6312 38.3428 49.5832 38.41 49.5232 38.4834C49.4631 38.5567 49.4031 38.6362 49.3431 38.7218C49.187 38.6606 49.0369 38.5873 48.8928 38.5017C48.7607 38.4161 48.6407 38.3367 48.5326 38.2633C48.4005 38.1778 48.2804 38.0922 48.1724 38.0066C48.0643 37.921 47.9623 37.8232 47.8662 37.7132C47.7822 37.6154 47.6921 37.5115 47.5961 37.4015C47.512 37.2914 47.44 37.1692 47.3799 37.0347C47.3079 37.1936 47.1338 37.4198 46.8576 37.7132C46.5935 38.0066 46.2453 38.2756 45.813 38.5201C45.3808 38.7523 44.8765 38.9174 44.3002 39.0152C43.7358 39.113 43.1115 39.0457 42.4271 38.8134C42.1269 38.7156 41.8448 38.5751 41.5806 38.3917C41.3165 38.1961 41.0883 37.9638 40.8962 37.6949C40.7161 37.4259 40.584 37.1203 40.5 36.778C40.428 36.4235 40.434 36.0323 40.518 35.6044C40.6021 35.1765 40.7521 34.8159 40.9683 34.5225C41.1844 34.2291 41.4425 33.9907 41.7427 33.8073C42.0429 33.624 42.3791 33.4834 42.7513 33.3856C43.1235 33.2878 43.5077 33.2205 43.9039 33.1839C44.2161 33.1716 44.5283 33.19 44.8405 33.2389C45.1046 33.2878 45.3808 33.3795 45.669 33.5139C45.9571 33.6362 46.2033 33.8257 46.4074 34.0824C46.3954 33.4345 46.3714 32.921 46.3353 32.5421C46.3113 32.1509 46.2873 31.8513 46.2633 31.6435C46.2153 31.399 46.1732 31.2279 46.1372 31.1301C46.0772 31.0445 46.0112 30.9467 45.9391 30.8367C45.8791 30.7267 45.801 30.6289 45.705 30.5433C45.6089 30.4455 45.4889 30.366 45.3448 30.3049C45.2007 30.2438 45.0326 30.2193 44.8405 30.2315C44.6364 30.2438 44.4743 30.2988 44.3542 30.3966C44.2341 30.4944 44.1381 30.6105 44.066 30.745C44.006 30.8672 43.97 31.0017 43.958 31.1484C43.946 31.2951 43.952 31.4235 43.976 31.5335C44 31.6068 44.036 31.6863 44.084 31.7719C44.1321 31.8452 44.1981 31.9247 44.2822 32.0103C44.3662 32.0958 44.4803 32.1692 44.6244 32.2303C44.3482 32.267 44.1021 32.2976 43.8859 32.322C43.6698 32.3342 43.4837 32.3526 43.3276 32.377C43.1475 32.4015 42.9914 32.4198 42.8593 32.432C42.7273 32.4443 42.5712 32.4687 42.3911 32.5054C42.235 32.5298 42.0429 32.5604 41.8147 32.5971C41.5866 32.6337 41.3225 32.6826 41.0223 32.7438C41.0943 32.6582 41.1604 32.5787 41.2204 32.5054C41.2804 32.4198 41.3345 32.3465 41.3825 32.2853C41.4305 32.212 41.4786 32.1447 41.5266 32.0836ZM44.2281 34.2658C44.012 34.278 43.7959 34.333 43.5798 34.4308C43.3636 34.5164 43.1715 34.6447 43.0034 34.8159C42.8353 34.9748 42.6912 35.1643 42.5712 35.3844C42.4631 35.5922 42.4091 35.8245 42.4091 36.0812C42.4091 36.3379 42.4691 36.5641 42.5892 36.7597C42.7213 36.943 42.8894 37.0958 43.0935 37.2181C43.3096 37.3403 43.5377 37.4137 43.7779 37.4381C44.03 37.4626 44.2762 37.4381 44.5163 37.3648C44.7444 37.2792 44.9606 37.1447 45.1647 36.9614C45.3688 36.7658 45.5429 36.5579 45.687 36.3379C45.831 36.1056 45.9331 35.8795 45.9931 35.6594C46.0532 35.4271 46.0592 35.2377 46.0111 35.091C45.9151 34.7731 45.699 34.5531 45.3628 34.4308C45.0266 34.2963 44.6484 34.2413 44.2281 34.2658Z" fill="white"/>
<path d="M50.6398 37.4932C50.7238 37.0897 50.7839 36.7352 50.8199 36.4296C50.8679 36.1117 50.9039 35.8489 50.928 35.6411C50.952 35.3966 50.964 35.1888 50.964 35.0176C50.952 34.8098 50.94 34.5653 50.928 34.2841C50.928 33.9907 50.916 33.7034 50.8919 33.4223C50.8799 33.1289 50.8619 32.8721 50.8379 32.6521C50.8139 32.4198 50.7839 32.2548 50.7479 32.157C50.6998 32.0592 50.6338 31.9553 50.5497 31.8452C50.3816 31.6374 50.1355 31.4357 49.8113 31.2401C50.0875 31.179 50.3216 31.1301 50.5137 31.0934C50.7178 31.0445 50.8859 31.0017 51.018 30.965C51.1621 30.9161 51.2882 30.8734 51.3962 30.8367C51.4923 30.8 51.6063 30.7633 51.7384 30.7267C51.8465 30.7022 51.9786 30.6716 52.1346 30.635C52.2907 30.5983 52.4708 30.5555 52.675 30.5066L52.6209 32.1753C53.0051 31.7108 53.3954 31.3623 53.7916 31.1301C54.1878 30.8978 54.56 30.7328 54.9082 30.635C55.3045 30.5127 55.6947 30.4516 56.0789 30.4516C56.5592 30.476 57.0034 30.5555 57.4117 30.69C57.8319 30.8245 58.1921 30.9834 58.4923 31.1667C58.8045 31.3379 59.0566 31.5213 59.2487 31.7169C59.4408 31.9125 59.5549 32.0836 59.5909 32.2303C59.735 32.7071 59.771 33.1472 59.699 33.5506C59.6269 33.9418 59.5309 34.3269 59.4108 34.7059C59.3027 35.0726 59.2067 35.4394 59.1226 35.8061C59.0506 36.1729 59.0806 36.5702 59.2127 36.998C59.2607 37.1081 59.3087 37.2181 59.3568 37.3281C59.4048 37.4259 59.4648 37.5237 59.5369 37.6215C59.6089 37.7193 59.693 37.7988 59.789 37.8599C59.6569 37.8477 59.5249 37.8416 59.3928 37.8416C59.2607 37.8293 59.1407 37.8171 59.0326 37.8049C58.9005 37.7927 58.7804 37.7804 58.6724 37.7682C58.5523 37.756 58.3902 37.7499 58.1861 37.7499C57.8379 37.7499 57.2976 37.7682 56.5652 37.8049C56.6732 37.5482 56.7573 37.3342 56.8173 37.1631C56.8894 36.9797 56.9494 36.833 56.9974 36.723C57.0455 36.5885 57.0815 36.4846 57.1055 36.4112C57.2496 36.0567 57.3336 35.6533 57.3576 35.201C57.3937 34.7487 57.3636 34.2902 57.2676 33.8257C57.2316 33.6667 57.1715 33.4773 57.0875 33.2572C57.0034 33.0372 56.8894 32.8232 56.7453 32.6154C56.6132 32.4076 56.4511 32.2303 56.259 32.0836C56.0789 31.9369 55.8688 31.8513 55.6286 31.8269C55.3885 31.8024 55.1184 31.8636 54.8182 32.0103C54.53 32.157 54.2178 32.4259 53.8816 32.8171C53.6295 33.1472 53.4314 33.5506 53.2873 34.0274C53.1552 34.4308 53.0652 34.9381 53.0172 35.5494C52.9691 36.1484 53.0412 36.8513 53.2333 37.6582C53.0652 37.6337 52.9091 37.6215 52.765 37.6215C52.6209 37.6093 52.5009 37.5971 52.4048 37.5848C52.2847 37.5726 52.1767 37.5604 52.0806 37.5482C51.9726 37.5482 51.8525 37.5421 51.7204 37.5298C51.6003 37.5298 51.4503 37.5298 51.2702 37.5298C51.0901 37.5176 50.8799 37.5054 50.6398 37.4932Z" fill="white"/>
<path d="M69.5506 25.4638C69.7787 25.476 70.0249 25.4822 70.289 25.4822C70.5172 25.4822 70.7753 25.4883 71.0635 25.5005C71.3636 25.5005 71.6758 25.4883 72 25.4638C71.7118 25.5983 71.4597 25.7939 71.2436 26.0506C71.0274 26.3073 70.8533 26.5641 70.7213 26.8208C70.5532 27.1264 70.4151 27.4443 70.307 27.7743C70.247 27.9699 70.199 28.3183 70.1629 28.8196C70.1269 29.3086 70.0969 29.8831 70.0729 30.5433C70.0609 31.2034 70.0549 31.9002 70.0549 32.6337C70.0549 33.3672 70.0609 34.0702 70.0729 34.7425C70.0849 35.4027 70.1029 35.9895 70.1269 36.5029C70.1509 37.0164 70.181 37.377 70.217 37.5848C70.265 37.8293 70.325 38.0616 70.3971 38.2817C70.4571 38.4773 70.5352 38.679 70.6312 38.8868C70.7273 39.0824 70.8473 39.2413 70.9914 39.3636L69.1544 40.2071C69.0583 40.0726 68.9803 39.932 68.9202 39.7853C68.8602 39.6509 68.8122 39.5286 68.7762 39.4186C68.7281 39.2841 68.6981 39.1619 68.6861 39.0518C68.6621 38.9051 68.6381 38.7462 68.6141 38.5751C68.59 38.3917 68.56 38.2205 68.524 38.0616C68.5 37.8905 68.482 37.7499 68.47 37.6399C68.458 37.5298 68.458 37.4626 68.47 37.4381C68.482 37.4137 68.4099 37.5237 68.2539 37.7682C68.0978 38.0005 67.8636 38.2756 67.5515 38.5934C67.2513 38.899 66.8791 39.1985 66.4348 39.4919C65.9906 39.7731 65.4923 39.9504 64.94 40.0237C64.3756 40.0971 63.8533 39.987 63.3731 39.6936C62.9048 39.4002 62.5026 38.9907 62.1664 38.465C61.8302 37.9271 61.572 37.3098 61.3919 36.613C61.2238 35.9039 61.1578 35.1826 61.1938 34.4491C61.2178 33.9601 61.3259 33.5262 61.518 33.1472C61.7101 32.756 61.9503 32.4198 62.2384 32.1386C62.5386 31.8452 62.8628 31.6007 63.211 31.4051C63.5712 31.1973 63.9194 31.0262 64.2556 30.8917C64.6038 30.7572 64.928 30.6594 65.2281 30.5983C65.5283 30.5372 65.7684 30.4944 65.9485 30.4699C66.1647 30.4577 66.4108 30.4944 66.687 30.58C66.9271 30.6533 67.2033 30.7756 67.5154 30.9467C67.8396 31.1178 68.1998 31.3746 68.5961 31.7169C68.524 30.4944 68.458 29.5164 68.3979 28.7829C68.3379 28.0372 68.2779 27.4687 68.2178 27.0775C68.1578 26.613 68.1038 26.2951 68.0557 26.124C67.9957 26.0017 67.9177 25.8795 67.8216 25.7572C67.7376 25.6594 67.6295 25.5616 67.4974 25.4638C67.3774 25.3538 67.2333 25.2682 67.0652 25.2071C67.3774 25.2682 67.6775 25.311 67.9657 25.3355C68.2539 25.3599 68.518 25.3844 68.7582 25.4088C69.0343 25.4333 69.2985 25.4516 69.5506 25.4638ZM65.03 32.3037C64.8019 32.3892 64.6158 32.5359 64.4717 32.7438C64.3396 32.9516 64.2316 33.2022 64.1475 33.4956C64.0635 33.7768 64.0034 34.0824 63.9674 34.4125C63.9434 34.7303 63.9254 35.0421 63.9134 35.3477C63.9134 35.6411 63.9134 35.91 63.9134 36.1545C63.9134 36.399 63.9134 36.5824 63.9134 36.7046C63.9134 36.778 63.9254 36.9125 63.9494 37.1081C63.9854 37.2914 64.0575 37.487 64.1655 37.6949C64.2736 37.8905 64.4237 38.0677 64.6158 38.2267C64.8199 38.3856 65.0901 38.465 65.4262 38.465C65.7024 38.4406 65.9966 38.3428 66.3087 38.1716C66.5849 38.0249 66.8971 37.7927 67.2453 37.4748C67.6055 37.1447 67.9897 36.6741 68.3979 36.0628C68.3739 35.6716 68.3559 35.3477 68.3439 35.091C68.3439 34.8342 68.3379 34.6264 68.3259 34.4675C68.3139 34.2841 68.3079 34.1374 68.3079 34.0274V33.7523C68.3079 33.679 68.3079 33.5995 68.3079 33.5139C68.3079 33.4284 68.3139 33.3489 68.3259 33.2756C67.9897 33.0311 67.6895 32.8232 67.4254 32.6521C67.1732 32.4687 66.9211 32.3342 66.6689 32.2487C66.4288 32.1509 66.1767 32.1081 65.9125 32.1203C65.6604 32.1203 65.3662 32.1814 65.03 32.3037Z" fill="white"/>
<path d="M0 0.664968C0.65585 0.827768 1.28096 0.949868 1.87532 1.03127C2.46968 1.11267 2.99231 1.17372 3.44321 1.21442C3.97609 1.27547 4.46798 1.29582 4.91887 1.27547C5.49274 1.27547 6.21008 1.22459 7.07088 1.12284C7.95218 1.02109 8.85397 0.929518 9.77626 0.848118C10.6985 0.746368 11.5798 0.685318 12.4202 0.664968C13.281 0.624268 13.9778 0.675143 14.5107 0.817593C15.0436 0.939693 15.5867 1.13302 16.1401 1.39757C16.7139 1.64177 17.2366 1.95719 17.7079 2.34384C18.1793 2.71014 18.5687 3.14767 18.8762 3.65642C19.1836 4.14482 19.3578 4.70445 19.3988 5.3353C19.3783 6.12895 19.1939 6.87172 18.8454 7.56362C18.5585 8.15378 18.0769 8.76428 17.4005 9.39513C16.7242 10.0056 15.7506 10.4737 14.4799 10.7993C15.1153 10.8807 15.6584 11.0231 16.1093 11.2266C16.5807 11.4098 16.9804 11.6336 17.3083 11.8982C17.6567 12.1424 17.9334 12.4171 18.1383 12.7224C18.3638 13.0276 18.538 13.3329 18.661 13.6381C18.9684 14.3504 19.1119 15.144 19.0914 16.0191C18.9684 17.1587 18.7327 18.0642 18.3843 18.7358C18.0564 19.4073 17.6772 19.9263 17.2468 20.2926C16.8164 20.6589 16.3757 20.9132 15.9248 21.0557C15.474 21.1981 15.064 21.3101 14.6951 21.3915C14.3262 21.4729 13.8753 21.5136 13.3424 21.5136C12.8096 21.5136 12.2357 21.5034 11.6208 21.483C11.0265 21.4423 10.4116 21.4118 9.77626 21.3915C9.14091 21.3508 8.53629 21.3508 7.96242 21.3915C7.49103 21.4322 6.91716 21.4729 6.24082 21.5136C5.66695 21.5543 4.94962 21.6051 4.08881 21.6662C3.22801 21.7069 2.22374 21.7578 1.076 21.8188C1.30145 21.656 1.48591 21.4729 1.62938 21.2694C1.79334 21.0455 1.92656 20.8522 2.02904 20.6894C2.13151 20.4859 2.22374 20.2926 2.30572 20.1094C2.36721 19.9466 2.41845 19.4989 2.45944 18.7663C2.50043 18.0337 2.53117 17.1587 2.55167 16.1412C2.57216 15.1033 2.58241 13.9942 2.58241 12.8139C2.6029 11.6133 2.59266 10.4635 2.55167 9.3646C2.53117 8.24535 2.49018 7.25837 2.42869 6.40367C2.3877 5.52862 2.32622 4.89777 2.24424 4.51112C2.12126 4.08377 1.9573 3.64625 1.75235 3.19855C1.58839 2.81189 1.35269 2.39472 1.04526 1.94702C0.758326 1.49932 0.409906 1.07197 0 0.664968ZM6.48676 3.77852C6.48676 3.85992 6.49701 4.13465 6.51751 4.6027C6.538 5.0097 6.5585 5.64055 6.57899 6.49525C6.61998 7.3296 6.67122 8.52008 6.73271 10.0667C7.24509 10.2905 7.74722 10.4126 8.23911 10.433C8.731 10.433 9.17165 10.4126 9.56106 10.3719C10.012 10.3109 10.4424 10.2091 10.8523 10.0667C11.4056 9.84283 11.836 9.47653 12.1435 8.96778C12.4714 8.45903 12.6866 7.92993 12.7891 7.38047C12.912 6.81067 12.9428 6.28157 12.8813 5.79317C12.8198 5.28442 12.6866 4.91812 12.4816 4.69427C12.0922 4.34832 11.6106 4.06342 11.0367 3.83957C10.5448 3.65642 9.91973 3.53432 9.1614 3.47327C8.42357 3.39187 7.53202 3.49362 6.48676 3.77852ZM6.33305 18.2474C7.09137 18.634 7.75747 18.8884 8.33134 19.0105C8.90521 19.1326 9.38685 19.1937 9.77626 19.1937C10.2272 19.1937 10.6166 19.1326 10.9445 19.0105C11.3339 18.8274 11.7131 18.5832 12.082 18.2779C12.4714 17.9523 12.7583 17.5758 12.9428 17.1485C13.1477 16.7008 13.2297 16.2124 13.1887 15.6833C13.1477 15.1338 12.912 14.5335 12.4816 13.8823C12.0922 13.4143 11.6208 13.048 11.0675 12.7834C10.5756 12.5596 9.95047 12.4171 9.19214 12.3561C8.45431 12.295 7.54227 12.468 6.45602 12.875L6.33305 18.2474Z" fill="#A259FF"/>
<path d="M29.0521 8.81515C29.585 8.81515 30.1383 8.9169 30.7122 9.1204C31.2861 9.30355 31.8395 9.54775 32.3723 9.853C32.9052 10.1379 33.3868 10.4533 33.8172 10.7993C34.2681 11.1249 34.6371 11.4403 34.924 11.7456C35.4364 12.295 35.7848 13.0378 35.9693 13.9739C36.1742 14.8896 36.2152 15.8359 36.0922 16.8127C35.9693 17.7692 35.6823 18.6747 35.2314 19.5294C34.7805 20.3841 34.1554 21.015 33.3561 21.422C32.7822 21.7069 32.2186 21.9307 31.6652 22.0935C31.1119 22.2563 30.579 22.3784 30.0666 22.4598C29.5542 22.5412 29.0726 22.5819 28.6217 22.5819C28.1708 22.5819 27.7814 22.5718 27.4535 22.5514C26.8386 22.5107 26.193 22.297 25.5167 21.9104C24.8608 21.5237 24.2357 21.0455 23.6413 20.4757C23.0675 19.9059 22.5756 19.2852 22.1657 18.6137C21.7558 17.9218 21.5098 17.2706 21.4278 16.6601C21.3049 15.8257 21.2844 14.9507 21.3664 14.0349C21.4483 13.1192 21.7455 12.2747 22.2579 11.5014C22.7908 10.7281 23.5901 10.087 24.6558 9.57828C25.7421 9.06953 27.2075 8.81515 29.0521 8.81515ZM28.0376 20.6589C28.263 20.6996 28.5704 20.6487 28.9599 20.5062C29.3493 20.3434 29.7284 20.0891 30.0974 19.7431C30.4868 19.3972 30.8249 18.9596 31.1119 18.4305C31.4193 17.8811 31.6038 17.2197 31.6652 16.4464C31.7267 15.6935 31.7267 15.0016 31.6652 14.3707C31.6243 13.7399 31.532 13.1904 31.3886 12.7224C31.2451 12.234 31.0811 11.8371 30.8967 11.5319C30.7122 11.2266 30.5175 11.013 30.3126 10.8909C29.9641 10.7077 29.544 10.5653 29.0521 10.4635C28.5602 10.3414 28.1401 10.3618 27.7916 10.5246C27.6277 10.606 27.4227 10.7789 27.1768 11.0435C26.9308 11.308 26.6849 11.6438 26.4389 12.0508C26.193 12.4375 25.9675 12.8852 25.7626 13.3939C25.5781 13.9027 25.4449 14.4318 25.3629 14.9812C25.281 15.5307 25.2605 16.1208 25.3015 16.7517C25.3629 17.3825 25.4962 17.9828 25.7011 18.5526C25.9061 19.1021 26.193 19.5803 26.5619 19.9873C26.9513 20.374 27.4432 20.5978 28.0376 20.6589Z" fill="#A259FF"/>
<path d="M45.807 8.81515C46.3399 8.81515 46.8933 8.9169 47.4671 9.1204C48.041 9.30355 48.5944 9.54775 49.1272 9.853C49.6601 10.1379 50.1418 10.4533 50.5722 10.7993C51.0231 11.1249 51.392 11.4403 51.6789 11.7456C52.1913 12.295 52.5397 13.0378 52.7242 13.9739C52.9291 14.8896 52.9701 15.8359 52.8471 16.8127C52.7242 17.7692 52.4372 18.6747 51.9863 19.5294C51.5354 20.3841 50.9103 21.015 50.111 21.422C49.5371 21.7069 48.9735 21.9307 48.4202 22.0935C47.8668 22.2563 47.3339 22.3784 46.8215 22.4598C46.3091 22.5412 45.8275 22.5819 45.3766 22.5819C44.9257 22.5819 44.5363 22.5718 44.2084 22.5514C43.5935 22.5107 42.9479 22.297 42.2716 21.9104C41.6157 21.5237 40.9906 21.0455 40.3962 20.4757C39.8224 19.9059 39.3305 19.2852 38.9206 18.6137C38.5107 17.9218 38.2647 17.2706 38.1827 16.6601C38.0598 15.8257 38.0393 14.9507 38.1213 14.0349C38.2032 13.1192 38.5004 12.2747 39.0128 11.5014C39.5457 10.7281 40.345 10.087 41.4108 9.57828C42.497 9.06953 43.9624 8.81515 45.807 8.81515ZM44.7925 20.6589C45.0179 20.6996 45.3254 20.6487 45.7148 20.5062C46.1042 20.3434 46.4833 20.0891 46.8523 19.7431C47.2417 19.3972 47.5798 18.9596 47.8668 18.4305C48.1742 17.8811 48.3587 17.2197 48.4202 16.4464C48.4816 15.6935 48.4816 15.0016 48.4202 14.3707C48.3792 13.7399 48.2869 13.1904 48.1435 12.7224C48 12.234 47.836 11.8371 47.6516 11.5319C47.4671 11.2266 47.2724 11.013 47.0675 10.8909C46.719 10.7077 46.2989 10.5653 45.807 10.4635C45.3151 10.3414 44.895 10.3618 44.5465 10.5246C44.3826 10.606 44.1776 10.7789 43.9317 11.0435C43.6857 11.308 43.4398 11.6438 43.1938 12.0508C42.9479 12.4375 42.7225 12.8852 42.5175 13.3939C42.333 13.9027 42.1998 14.4318 42.1178 14.9812C42.0359 15.5307 42.0154 16.1208 42.0564 16.7517C42.1178 17.3825 42.2511 17.9828 42.456 18.5526C42.661 19.1021 42.9479 19.5803 43.3168 19.9873C43.7062 20.374 44.1981 20.5978 44.7925 20.6589Z" fill="#A259FF"/>
<path d="M54.0154 0.481818C54.2408 0.583568 54.5073 0.654793 54.8147 0.695493C55.1426 0.736193 55.45 0.756543 55.737 0.756543C56.0854 0.756543 56.4441 0.746368 56.813 0.726018C57.1819 0.705668 57.6328 0.664968 58.1657 0.603918C58.5961 0.563218 59.1289 0.512343 59.7643 0.451293C60.3997 0.390242 61.1067 0.308842 61.8856 0.207092C61.5986 0.349542 61.3527 0.502168 61.1477 0.664968C60.9428 0.827768 60.7686 0.990568 60.6251 1.15337C60.4611 1.33652 60.3279 1.51967 60.2254 1.70282C60.082 1.94702 59.8873 2.37437 59.6413 2.98487C59.4159 3.57502 59.1802 4.2364 58.9342 4.969C58.7088 5.7016 58.5038 6.44437 58.3194 7.19732C58.1554 7.95028 58.0632 8.5913 58.0427 9.1204C58.0222 9.5681 58.0017 10.0769 57.9812 10.6467C57.9607 11.1351 57.9402 11.7354 57.9197 12.4476C57.8992 13.1599 57.8787 13.9739 57.8582 14.8896C59.3339 13.8314 60.4714 12.9869 61.2707 12.3561C62.07 11.7049 62.6541 11.2063 63.0231 10.8603C63.4535 10.4737 63.7096 10.199 63.7916 10.0362C63.7711 9.91405 63.7199 9.78178 63.6379 9.63933C63.5354 9.51723 63.392 9.37478 63.2075 9.21198C63.0231 9.04918 62.7464 8.86603 62.3775 8.66253C62.9103 8.72358 63.3715 8.76428 63.7609 8.78463C64.1708 8.80498 64.5192 8.82533 64.8061 8.84568C65.1341 8.86603 65.421 8.86603 65.6669 8.84568C65.9334 8.84568 66.2613 8.8355 66.6507 8.81515C67.3271 8.7948 68.3723 8.76428 69.7865 8.72358C68.4133 9.43583 67.3271 10.0463 66.5277 10.5551C66.0769 10.84 65.6772 11.1045 65.3288 11.3487C64.9804 11.6133 64.6217 11.888 64.2528 12.1729C63.9249 12.4171 63.5457 12.702 63.1153 13.0276C62.7054 13.3532 62.2955 13.6992 61.8856 14.0655C62.6029 15.2254 63.228 16.1819 63.7609 16.9348C64.3143 17.6878 64.7754 18.2983 65.1443 18.7663C65.5747 19.3158 65.9539 19.7533 66.2818 20.0789C66.6097 20.3841 67.0401 20.7301 67.573 21.1167C68.0239 21.4627 68.608 21.8697 69.3254 22.3377C70.0632 22.7854 70.9547 23.3044 72 23.8945C71.4671 23.7928 70.9547 23.7215 70.4629 23.6808C69.971 23.6605 69.5508 23.6605 69.2024 23.6808C68.772 23.7012 68.3826 23.7419 68.0342 23.8029C67.6652 23.8843 67.2553 23.9861 66.8044 24.1082C66.415 24.2099 65.9539 24.3422 65.421 24.505C64.9086 24.6882 64.345 24.9222 63.7301 25.2071C64.1196 24.9222 64.4065 24.6475 64.591 24.3829C64.7959 24.1387 64.9394 23.9352 65.0213 23.7724C65.1033 23.5689 65.1341 23.3959 65.1136 23.2535C65.0111 23.05 64.7754 22.6328 64.4065 22.002C64.0581 21.4729 63.5457 20.6996 62.8693 19.6821C62.193 18.6646 61.2297 17.2808 59.9795 15.5307C59.918 15.551 59.8155 15.6121 59.6721 15.7138C59.5491 15.8156 59.3646 15.958 59.1187 16.1412C58.8728 16.304 58.5448 16.5482 58.1349 16.8738L58.965 22.2156C58.7805 22.297 58.5756 22.3683 58.3501 22.4293C58.1452 22.4904 57.9505 22.5412 57.766 22.5819C57.5406 22.643 57.3151 22.6837 57.0897 22.704C56.8642 22.7244 56.5978 22.7651 56.2904 22.8261C56.0239 22.8668 55.7062 22.9177 55.3373 22.9788C54.9684 23.0602 54.5483 23.1517 54.0769 23.2535C54.3433 23.0703 54.5585 22.8567 54.7225 22.6125C54.8864 22.3886 55.0196 22.1749 55.1221 21.9714C55.2246 21.7476 55.3168 21.5136 55.3988 21.2694C55.4398 21.0659 55.4808 20.5368 55.5218 19.6821C55.5833 18.8274 55.6345 17.8099 55.6755 16.6296C55.7165 15.4289 55.7472 14.1469 55.7677 12.7834C55.8087 11.42 55.8292 10.1379 55.8292 8.93725C55.8292 7.71625 55.819 6.65805 55.7985 5.76265C55.778 4.8469 55.737 4.25675 55.6755 3.9922C55.573 3.6666 55.45 3.32065 55.3066 2.95435C55.1836 2.62874 55.0094 2.26244 54.7839 1.85544C54.579 1.42809 54.3228 0.970218 54.0154 0.481818Z" fill="#A259FF"/>
<path fill-rule="evenodd" clip-rule="evenodd" d="M12.6361 23.8479C12.9039 23.5788 13.2784 23.4033 13.9871 23.3079C14.7169 23.2089 15.6829 23.2071 17.0689 23.2071H20.9311C22.3171 23.2071 23.2831 23.2089 24.0129 23.3079C24.7216 23.4033 25.0961 23.5788 25.3639 23.8479C25.6308 24.1179 25.8049 24.4959 25.9002 25.2096C25.9983 25.9449 26 26.9187 26 28.3146V35.3697H14.9278C14.1376 35.3697 13.5986 35.3688 13.1366 35.4939C12.7236 35.6055 12.3404 35.7873 12 36.0267V28.3155C12 26.9187 12.0017 25.9449 12.0997 25.2096C12.1951 24.4959 12.3693 24.1179 12.6361 23.8479ZM15.1386 26.6127C14.9486 26.6108 14.7657 26.6864 14.6298 26.8231C14.494 26.9598 14.4164 27.1463 14.4141 27.3417C14.4141 27.7449 14.7379 28.0716 15.1377 28.0716H22.8622C23.0521 28.0733 23.2348 27.9975 23.3705 27.8609C23.5061 27.7242 23.5836 27.5379 23.5859 27.3426C23.5838 27.1472 23.5064 26.9606 23.3708 26.8237C23.2351 26.6869 23.0522 26.611 22.8622 26.6127H15.1386ZM14.4141 30.7473C14.4141 30.345 14.7379 30.0183 15.1377 30.0183H19.9651C20.1551 30.0164 20.3381 30.092 20.4739 30.2287C20.6097 30.3654 20.6873 30.5519 20.6896 30.7473C20.6875 30.9429 20.6101 31.1296 20.4742 31.2665C20.3384 31.4033 20.1553 31.4791 19.9651 31.4772H15.1377C14.9479 31.4789 14.7652 31.4031 14.6295 31.2665C14.4939 31.1298 14.4164 30.9426 14.4141 30.7473Z" fill="white"/>
<path d="M15.039 36.8286C14.0949 36.8286 13.765 36.8349 13.5112 36.9033C13.1733 36.9931 12.8616 37.1661 12.6029 37.4072C12.3443 37.6483 12.1464 37.9504 12.0264 38.2875C12.0404 38.6313 12.064 38.9346 12.0999 39.2046C12.1952 39.9183 12.3694 40.2963 12.6362 40.5663C12.904 40.8354 13.2785 41.0109 13.9872 41.1063C14.717 41.2053 15.683 41.2071 17.069 41.2071H20.9312C22.3172 41.2071 23.2832 41.2053 24.013 41.1072C24.7217 41.0109 25.0962 40.8354 25.364 40.5663C25.553 40.3746 25.6965 40.1289 25.7971 39.7473H15.1379C14.948 39.749 14.7653 39.6732 14.6296 39.5366C14.494 39.3999 14.4166 39.2136 14.4142 39.0183C14.4142 38.6151 14.738 38.2884 15.1379 38.2884H25.9739C25.9914 37.869 25.9975 37.3884 26.0001 36.8286H15.039Z" fill="white"/>
</svg>
